<?xml version="1.0" encoding="utf-8"?>
<!-- Generator: Adobe Illustrator 19.0.0, SVG Export Plug-In . SVG Version: 6.00 Build 0)  -->
<svg version="1.1" id="Layer_1" xmlns="http://www.w3.org/2000/svg" xmlns:xlink="http://www.w3.org/1999/xlink" x="0px" y="0px"
	 viewBox="0 0 246 82.5" style="enable-background:new 0 0 246 82.5;" xml:space="preserve">
<style type="text/css">
	.st0{fill:#ED6513;}
	.st1{fill:#F43719;}
	.st2{fill:none;}
</style>
<path class="st0" d="M40.7,13.7v54.1l23.2-13V26.7L40.7,13.7z M56.8,50.6l-9,5V44.2h9V50.6z M56.8,37.3h-9V25.8l9,5V37.3z"/>
<path class="st1" d="M15.5,26.7v28.2l7.1,4v-8.1v-6.5h9h7.1V13.7L15.5,26.7z M31.6,37.3h-9v-6.5l9-5V37.3z"/>
<polygon class="st1" points="38.7,70.3 13.2,55.6 13.2,26.1 38.7,11.4 38.7,5.3 36.1,6.8 10.6,21.6 8,23.1 8,26.1 8,55.6 8,58.6 
	10.6,60.1 36.1,74.9 38.7,76.4 "/>
<polygon class="st0" points="40.7,70.3 66.3,55.6 66.3,26.1 40.7,11.4 40.7,5.3 43.3,6.8 68.9,21.6 71.5,23.1 71.5,26.1 71.5,55.6 
	71.5,58.6 68.9,60.1 43.3,74.9 40.7,76.4 "/>
<g>
	<path class="st1" d="M85,32.2c1.5,0,2.8,0.3,3.7,0.9c0.8,0.6,1.4,1.6,1.4,3.1c0,3.2-2.7,4.4-4.8,4.4c-0.2,0-0.5,0-0.6,0l-1.5-0.4
		v3.4c0,1.8,0.2,1.9,2.1,2.1v0.6h-6v-0.6c1.9-0.2,1.9-0.3,1.9-2.1v-8.6c0-1.9-0.2-2-1.9-2.1v-0.6H85z M83.3,39.4
		c0.3,0.1,0.8,0.3,1.6,0.3c1.5,0,3.3-0.7,3.3-3.5c0-2.4-1.6-3.3-3.4-3.3c-0.6,0-1.1,0.1-1.2,0.3c-0.2,0.1-0.2,0.4-0.2,1V39.4z"/>
	<path class="st1" d="M107,32.8c-1.8,0.2-2,0.3-2,2.1v8.7c0,1.8,0.2,1.9,2,2.1v0.6h-5.8v-0.6c1.8-0.2,2-0.3,2-2.1v-4.3h-7.4v4.3
		c0,1.8,0.2,1.9,1.9,2.1v0.6h-5.8v-0.6c1.8-0.2,1.9-0.3,1.9-2.1v-8.7c0-1.8-0.2-1.9-1.9-2.1v-0.6h5.8v0.6c-1.7,0.2-1.9,0.3-1.9,2.1
		v3.4h7.4v-3.4c0-1.8-0.2-1.9-2-2.1v-0.6h5.8V32.8z"/>
	<path class="st1" d="M121.3,32.8c-1.5,0.2-1.8,0.4-2.6,1.8c-1,1.6-1.8,3.1-2.8,5c-0.3,0.5-0.3,0.8-0.3,1.3v2.7
		c0,1.8,0.2,1.9,2.2,2.1v0.6h-6.2v-0.6c2-0.3,2.1-0.3,2.1-2.1v-2.8c0-0.4-0.1-0.6-0.4-1.3c-0.8-1.4-1.5-2.8-2.7-4.8
		c-0.8-1.5-1.1-1.7-2.5-1.9v-0.6h5.3v0.6c-1.6,0.2-1.5,0.5-1.1,1.2c0.9,1.7,1.9,3.6,2.8,5.2c0.8-1.5,2-3.8,2.6-5
		c0.5-1.1,0.4-1.3-1.3-1.5v-0.6h4.9V32.8z"/>
	<path class="st1" d="M129.7,35.5c-0.4-1.4-1-2.8-3-2.8c-1.7,0-2.3,1.2-2.3,2.4c0,1.5,1,2.3,2.8,3.2c2.6,1.3,3.7,2.3,3.7,4.4
		c0,2.3-2,4-4.8,4c-1.3,0-2.4-0.4-3.3-0.7c-0.2-0.6-0.4-2.1-0.6-3.3l0.7-0.2c0.4,1.4,1.4,3.3,3.6,3.3c1.6,0,2.5-1.1,2.5-2.5
		c0-1.7-0.9-2.3-2.8-3.4c-2.3-1.2-3.6-2.3-3.6-4.3c0-1.9,1.6-3.7,4.5-3.7c1.2,0,2.4,0.3,2.9,0.4c0.1,0.8,0.2,1.6,0.3,3.1L129.7,35.5
		z"/>
	<path class="st1" d="M132.7,46.3v-0.6c1.8-0.2,1.9-0.3,1.9-2.1v-8.6c0-1.9-0.2-2-1.9-2.1v-0.6h5.8v0.6c-1.8,0.2-2,0.3-2,2.1v8.6
		c0,1.9,0.2,1.9,2,2.1v0.6H132.7z"/>
	<path class="st1" d="M153.6,42.8c-0.3,1-0.9,2.6-1.2,3.3c-0.6,0.1-2.3,0.5-4,0.5c-5.2,0-7.8-3.4-7.8-7.2c0-4.4,3.4-7.5,8.2-7.5
		c1.9,0,3.4,0.4,4.1,0.5c0.1,1,0.2,2.3,0.4,3.4l-0.7,0.2c-0.4-1.4-1-2.3-2.1-2.8c-0.6-0.3-1.5-0.4-2.3-0.4c-3.6,0-5.5,2.6-5.5,6.2
		c0,4.2,2.2,6.9,5.7,6.9c2.2,0,3.3-1,4.4-3.2L153.6,42.8z"/>
	<path class="st1" d="M163.8,46.3v-0.6c1.4-0.2,1.6-0.4,1.3-1.2c-0.3-0.8-0.7-1.9-1.2-3.3h-4.7c-0.3,1-0.7,1.8-1,2.7
		c-0.5,1.4-0.2,1.6,1.6,1.8v0.6h-5v-0.6c1.4-0.2,1.7-0.3,2.5-2.3l4.5-11.4l0.7-0.1c1.4,3.7,2.9,7.8,4.2,11.5
		c0.7,1.9,0.9,2.1,2.4,2.2v0.6H163.8z M161.6,34.7c-0.7,1.9-1.4,3.8-2.1,5.5h4.1L161.6,34.7z"/>
	<path class="st1" d="M180.9,42.7c-0.1,0.7-0.8,2.9-1,3.6h-10.1v-0.6c2-0.2,2.1-0.3,2.1-2.1v-8.6c0-1.8-0.2-2-1.9-2.1v-0.6h5.8v0.6
		c-1.7,0.2-2,0.3-2,2.1v8.8c0,1.3,0.2,1.6,1.4,1.6c0,0,1.6,0,1.7,0c1.1,0,1.4-0.1,1.9-0.7c0.5-0.6,1-1.4,1.3-2.2L180.9,42.7z"/>
	<path class="st1" d="M194.8,38.6c2.1,0.3,3.8,1.3,3.8,3.4c0,1.5-0.8,2.6-2.1,3.3c-1.1,0.6-2.2,0.8-3.7,0.8h-5.3v-0.6
		c1.8-0.2,1.9-0.4,1.9-2.1v-8.7c0-1.8-0.2-1.9-1.9-2.1v-0.6h5.7c1.6,0,2.6,0.3,3.3,0.8c0.8,0.5,1.3,1.3,1.3,2.4
		C197.7,37.4,196,38.3,194.8,38.6 M192.3,38.4c2.4,0,3.4-1,3.4-2.7c0-1.5-0.9-2.7-3-2.7c-0.6,0-1,0.1-1.2,0.2
		c-0.2,0.1-0.2,0.4-0.2,1.1v4.1H192.3z M191.2,43.5c0,1.6,0.4,1.9,1.9,1.9c1.7,0,3.3-0.9,3.3-3.2c0-2.2-1.6-3.2-4.2-3.2h-1V43.5z"/>
	<path class="st1" d="M208.4,46.3v-0.6c1.4-0.2,1.6-0.4,1.3-1.2c-0.3-0.8-0.7-1.9-1.2-3.3h-4.7c-0.3,1-0.7,1.8-1,2.7
		c-0.5,1.4-0.2,1.6,1.6,1.8v0.6h-5v-0.6c1.4-0.2,1.7-0.3,2.5-2.3l4.5-11.4l0.7-0.1c1.4,3.7,2.9,7.8,4.2,11.5
		c0.7,1.9,0.9,2.1,2.4,2.2v0.6H208.4z M206.2,34.7c-0.7,1.9-1.4,3.8-2.1,5.5h4.1L206.2,34.7z"/>
	<path class="st1" d="M222.5,35.5c-0.4-1.4-1-2.8-3-2.8c-1.7,0-2.3,1.2-2.3,2.4c0,1.5,1,2.3,2.8,3.2c2.6,1.3,3.7,2.3,3.7,4.4
		c0,2.3-2,4-4.8,4c-1.3,0-2.4-0.4-3.3-0.7c-0.2-0.6-0.4-2.1-0.6-3.3l0.7-0.2c0.4,1.4,1.4,3.3,3.6,3.3c1.6,0,2.5-1.1,2.5-2.5
		c0-1.7-0.9-2.3-2.8-3.4c-2.3-1.2-3.6-2.3-3.6-4.3c0-1.9,1.6-3.7,4.5-3.7c1.2,0,2.4,0.3,2.9,0.4c0.1,0.8,0.2,1.6,0.3,3.1L222.5,35.5
		z"/>
	<path class="st1" d="M236.8,42.8c-0.1,0.6-0.7,2.8-0.9,3.4h-10.5v-0.6c2-0.1,2.2-0.3,2.2-2.1V35c0-1.9-0.2-2-1.9-2.2v-0.6h6.6
		c2,0,2.9,0,3.1,0c0,0.5,0.1,2.2,0.2,3.3l-0.6,0.1c-0.2-0.7-0.4-1.2-0.6-1.6c-0.3-0.7-0.8-0.9-2.1-0.9h-2.1c-0.7,0-0.7,0.1-0.7,0.7
		v4.8h2.4c1.6,0,1.7-0.3,2-1.8h0.7v4.5h-0.7c-0.3-1.6-0.5-1.8-2-1.8h-2.4v4.3c0,1.5,0.5,1.6,1.6,1.7h2c1.3,0,1.5-0.2,2-0.8
		c0.4-0.5,0.9-1.3,1.2-2L236.8,42.8z"/>
</g>
<rect x="-48.6" y="-64.7" class="st2" width="283.5" height="283.5"/>
</svg>
