<?xml version="1.0" encoding="utf-8"?>
<!-- Generator: Adobe Illustrator 19.0.0, SVG Export Plug-In . SVG Version: 6.00 Build 0)  -->
<svg version="1.1" id="Layer_1" xmlns="http://www.w3.org/2000/svg" xmlns:xlink="http://www.w3.org/1999/xlink" x="0px" y="0px"
	 viewBox="0 0 67.7 94" style="enable-background:new 0 0 67.7 94;" xml:space="preserve">
<style type="text/css">
	.st0{fill:#ED6513;}
	.st1{fill:#F43719;}
	.st2{clip-path:url(#SVGID_2_);fill:#F43719;}
</style>
<path class="st0" d="M34.8,10.9v54.1l23.2-13V23.9L34.8,10.9z M50.9,47.9l-9,5V41.4h9V47.9z M50.9,34.6h-9V23l9,5V34.6z"/>
<path class="st1" d="M9.6,23.9v28.2l7.1,4v-8.1v-6.5h9h7.1V10.9L9.6,23.9z M25.7,34.6h-9v-6.5l9-5V34.6z"/>
<polygon class="st1" points="32.8,67.6 7.3,52.8 7.3,23.3 32.8,8.6 32.8,2.6 30.2,4.1 4.7,18.8 2.1,20.3 2.1,23.3 2.1,52.8 
	2.1,55.9 4.7,57.4 30.2,72.1 32.8,73.6 "/>
<polygon class="st0" points="34.8,67.6 60.3,52.8 60.3,23.3 34.8,8.6 34.8,2.6 37.4,4.1 62.9,18.8 65.6,20.3 65.6,23.3 65.6,52.8 
	65.6,55.9 62.9,57.4 37.4,72.1 34.8,73.6 "/>
<g>
	<defs>
		<rect id="SVGID_1_" x="-139.7" y="-17.8" width="283.5" height="283.5"/>
	</defs>
	<clipPath id="SVGID_2_">
		<use xlink:href="#SVGID_1_"  style="overflow:visible;"/>
	</clipPath>
	<path class="st2" d="M11.2,79.2c0.5,0,0.9,0.1,1.1,0.3c0.3,0.2,0.4,0.5,0.4,1c0,1-0.8,1.4-1.5,1.4c-0.1,0-0.1,0-0.2,0l-0.5-0.1v1
		c0,0.6,0,0.6,0.7,0.6v0.2H9.5v-0.2c0.6-0.1,0.6-0.1,0.6-0.7v-2.7c0-0.6-0.1-0.6-0.6-0.7v-0.2H11.2z M10.7,81.5
		c0.1,0,0.3,0.1,0.5,0.1c0.4,0,1-0.2,1-1.1c0-0.7-0.5-1-1-1c-0.2,0-0.3,0-0.4,0.1c-0.1,0-0.1,0.1-0.1,0.3V81.5z"/>
	<path class="st2" d="M18,79.4c-0.6,0.1-0.6,0.1-0.6,0.7v2.7c0,0.6,0.1,0.6,0.6,0.6v0.2h-1.8v-0.2c0.6-0.1,0.6-0.1,0.6-0.6v-1.3
		h-2.3v1.3c0,0.6,0.1,0.6,0.6,0.6v0.2h-1.8v-0.2c0.5-0.1,0.6-0.1,0.6-0.6v-2.7c0-0.6-0.1-0.6-0.6-0.7v-0.2h1.8v0.2
		c-0.5,0-0.6,0.1-0.6,0.7v1.1h2.3v-1.1c0-0.6-0.1-0.6-0.6-0.7v-0.2H18V79.4z"/>
	<path class="st2" d="M22.5,79.4c-0.5,0.1-0.6,0.1-0.8,0.6c-0.3,0.5-0.6,1-0.9,1.5c-0.1,0.2-0.1,0.2-0.1,0.4v0.8
		c0,0.6,0.1,0.6,0.7,0.7v0.2h-1.9v-0.2c0.6-0.1,0.7-0.1,0.7-0.7v-0.9c0-0.1,0-0.2-0.1-0.4c-0.2-0.4-0.5-0.9-0.8-1.5
		c-0.3-0.5-0.3-0.5-0.8-0.6v-0.2H20v0.2c-0.5,0.1-0.5,0.2-0.3,0.4c0.3,0.5,0.6,1.1,0.9,1.6c0.2-0.4,0.6-1.2,0.8-1.6
		c0.2-0.3,0.1-0.4-0.4-0.5v-0.2h1.5V79.4z"/>
	<path class="st2" d="M25,80.3c-0.1-0.4-0.3-0.9-0.9-0.9c-0.5,0-0.7,0.4-0.7,0.7c0,0.5,0.3,0.7,0.9,1c0.8,0.4,1.2,0.7,1.2,1.4
		c0,0.7-0.6,1.2-1.5,1.2c-0.4,0-0.8-0.1-1-0.2c-0.1-0.2-0.1-0.6-0.2-1l0.2-0.1c0.1,0.4,0.4,1,1.1,1c0.5,0,0.8-0.3,0.8-0.8
		c0-0.5-0.3-0.7-0.9-1c-0.7-0.4-1.1-0.7-1.1-1.3c0-0.6,0.5-1.2,1.4-1.2c0.4,0,0.7,0.1,0.9,0.1c0,0.2,0.1,0.5,0.1,0.9L25,80.3z"/>
	<path class="st2" d="M26,83.6v-0.2c0.5-0.1,0.6-0.1,0.6-0.7v-2.7c0-0.6-0.1-0.6-0.6-0.7v-0.2h1.8v0.2c-0.6,0.1-0.6,0.1-0.6,0.7v2.7
		c0,0.6,0.1,0.6,0.6,0.7v0.2H26z"/>
	<path class="st2" d="M32.5,82.5c-0.1,0.3-0.3,0.8-0.4,1c-0.2,0-0.7,0.2-1.2,0.2c-1.6,0-2.4-1.1-2.4-2.2c0-1.4,1-2.3,2.5-2.3
		c0.6,0,1,0.1,1.3,0.2c0,0.3,0.1,0.7,0.1,1l-0.2,0c-0.1-0.4-0.3-0.7-0.6-0.9c-0.2-0.1-0.5-0.1-0.7-0.1c-1.1,0-1.7,0.8-1.7,1.9
		c0,1.3,0.7,2.1,1.8,2.1c0.7,0,1-0.3,1.4-1L32.5,82.5z"/>
	<path class="st2" d="M35.6,83.6v-0.2c0.4-0.1,0.5-0.1,0.4-0.4c-0.1-0.3-0.2-0.6-0.4-1h-1.4c-0.1,0.3-0.2,0.6-0.3,0.8
		c-0.1,0.4-0.1,0.5,0.5,0.6v0.2h-1.6v-0.2c0.4-0.1,0.5-0.1,0.8-0.7l1.4-3.5l0.2,0c0.4,1.1,0.9,2.4,1.3,3.6c0.2,0.6,0.3,0.6,0.8,0.7
		v0.2H35.6z M35,80c-0.2,0.6-0.4,1.2-0.6,1.7h1.3L35,80z"/>
	<path class="st2" d="M40.9,82.5c0,0.2-0.2,0.9-0.3,1.1h-3.1v-0.2c0.6-0.1,0.7-0.1,0.7-0.7v-2.7c0-0.6-0.1-0.6-0.6-0.7v-0.2h1.8v0.2
		c-0.5,0.1-0.6,0.1-0.6,0.7v2.7c0,0.4,0.1,0.5,0.4,0.5c0,0,0.5,0,0.5,0c0.3,0,0.4,0,0.6-0.2c0.2-0.2,0.3-0.4,0.4-0.7L40.9,82.5z"/>
	<path class="st2" d="M45.2,81.2c0.6,0.1,1.2,0.4,1.2,1.1c0,0.5-0.3,0.8-0.7,1c-0.3,0.2-0.7,0.3-1.2,0.3h-1.7v-0.2
		c0.6-0.1,0.6-0.1,0.6-0.6v-2.7c0-0.6-0.1-0.6-0.6-0.7v-0.2h1.8c0.5,0,0.8,0.1,1,0.2c0.2,0.2,0.4,0.4,0.4,0.8
		C46.1,80.9,45.6,81.2,45.2,81.2 M44.5,81.2c0.7,0,1-0.3,1-0.8c0-0.5-0.3-0.8-0.9-0.8c-0.2,0-0.3,0-0.4,0.1c-0.1,0-0.1,0.1-0.1,0.3
		v1.3H44.5z M44.1,82.8c0,0.5,0.1,0.6,0.6,0.6c0.5,0,1-0.3,1-1c0-0.7-0.5-1-1.3-1h-0.3V82.8z"/>
	<path class="st2" d="M49.5,83.6v-0.2c0.4-0.1,0.5-0.1,0.4-0.4c-0.1-0.3-0.2-0.6-0.4-1H48c-0.1,0.3-0.2,0.6-0.3,0.8
		c-0.1,0.4-0.1,0.5,0.5,0.6v0.2h-1.6v-0.2c0.4-0.1,0.5-0.1,0.8-0.7l1.4-3.5l0.2,0c0.4,1.1,0.9,2.4,1.3,3.6c0.2,0.6,0.3,0.6,0.8,0.7
		v0.2H49.5z M48.8,80c-0.2,0.6-0.4,1.2-0.6,1.7h1.3L48.8,80z"/>
	<path class="st2" d="M53.8,80.3c-0.1-0.4-0.3-0.9-0.9-0.9c-0.5,0-0.7,0.4-0.7,0.7c0,0.5,0.3,0.7,0.9,1c0.8,0.4,1.2,0.7,1.2,1.4
		c0,0.7-0.6,1.2-1.5,1.2c-0.4,0-0.8-0.1-1-0.2c-0.1-0.2-0.1-0.6-0.2-1l0.2-0.1c0.1,0.4,0.4,1,1.1,1c0.5,0,0.8-0.3,0.8-0.8
		c0-0.5-0.3-0.7-0.9-1c-0.7-0.4-1.1-0.7-1.1-1.3c0-0.6,0.5-1.2,1.4-1.2c0.4,0,0.7,0.1,0.9,0.1c0,0.2,0.1,0.5,0.1,0.9L53.8,80.3z"/>
	<path class="st2" d="M58.3,82.5c0,0.2-0.2,0.9-0.3,1.1h-3.3v-0.2c0.6,0,0.7-0.1,0.7-0.7v-2.7c0-0.6-0.1-0.6-0.6-0.7v-0.2h2.1
		c0.6,0,0.9,0,1,0c0,0.2,0,0.7,0.1,1l-0.2,0c-0.1-0.2-0.1-0.4-0.2-0.5c-0.1-0.2-0.3-0.3-0.7-0.3h-0.6c-0.2,0-0.2,0-0.2,0.2v1.5h0.7
		c0.5,0,0.5-0.1,0.6-0.6h0.2V82h-0.2c-0.1-0.5-0.1-0.6-0.6-0.6H56v1.3c0,0.5,0.1,0.5,0.5,0.5h0.6c0.4,0,0.5-0.1,0.6-0.2
		c0.1-0.1,0.3-0.4,0.4-0.6L58.3,82.5z"/>
	<path class="st2" d="M7.1,88.4c-0.1-0.2-0.1-0.4-0.2-0.6c-0.1-0.2-0.2-0.2-0.5-0.2H5.7v3.3c0,0.5,0.1,0.6,0.7,0.6v0.2h-2v-0.2
		c0.6,0,0.7-0.1,0.7-0.6v-3.3H4.5c-0.4,0-0.5,0-0.6,0.2c-0.1,0.1-0.1,0.3-0.2,0.5H3.4c0-0.4,0.1-0.8,0.1-1.2h0.2
		c0.1,0.2,0.2,0.2,0.4,0.2h2.7c0.2,0,0.2,0,0.3-0.2h0.2c0,0.3,0,0.8,0.1,1.2L7.1,88.4z"/>
	<path class="st2" d="M11.8,91.7c-0.1,0-0.2,0-0.2,0c-0.5,0-0.8-0.2-1-0.6c-0.2-0.3-0.5-0.8-0.7-1.1c-0.1-0.2-0.2-0.3-0.6-0.3H9v1.1
		c0,0.6,0.1,0.6,0.6,0.7v0.2H7.8v-0.2c0.6-0.1,0.6-0.1,0.6-0.7v-2.7c0-0.6-0.1-0.6-0.6-0.7v-0.2h1.7c0.5,0,0.8,0.1,1.1,0.2
		c0.3,0.2,0.5,0.5,0.5,0.9c0,0.6-0.4,0.9-0.9,1.2c0.1,0.2,0.4,0.7,0.6,1c0.2,0.4,0.4,0.5,0.5,0.7c0.2,0.2,0.3,0.3,0.5,0.3L11.8,91.7
		z M9.3,89.5c0.3,0,0.6-0.1,0.7-0.2c0.3-0.2,0.4-0.5,0.4-0.8c0-0.7-0.5-1-1-1c-0.2,0-0.3,0-0.4,0.1C9,87.7,9,87.7,9,87.9v1.6H9.3z"
		/>
	<path class="st2" d="M14.7,91.7v-0.2c0.4-0.1,0.5-0.1,0.4-0.4c-0.1-0.3-0.2-0.6-0.4-1h-1.4c-0.1,0.3-0.2,0.6-0.3,0.8
		c-0.1,0.4-0.1,0.5,0.5,0.6v0.2h-1.6v-0.2c0.4-0.1,0.5-0.1,0.8-0.7l1.4-3.5l0.2,0c0.4,1.1,0.9,2.4,1.3,3.6c0.2,0.6,0.3,0.6,0.8,0.7
		v0.2H14.7z M14,88.1c-0.2,0.6-0.4,1.2-0.6,1.7h1.3L14,88.1z"/>
	<path class="st2" d="M16.6,91.7v-0.2c0.5-0.1,0.6-0.1,0.6-0.7v-2.7c0-0.6-0.1-0.6-0.6-0.7v-0.2h1.8v0.2c-0.6,0.1-0.6,0.1-0.6,0.7
		v2.7c0,0.6,0.1,0.6,0.6,0.7v0.2H16.6z"/>
	<path class="st2" d="M23.7,87.5c-0.4,0-0.6,0.1-0.6,0.4c0,0.2,0,0.5,0,1.1v2.7h-0.3L20,88.2v1.7c0,0.6,0,0.9,0,1.1
		c0,0.3,0.2,0.4,0.7,0.5v0.2h-1.6v-0.2c0.4,0,0.6-0.1,0.6-0.5c0-0.2,0-0.5,0-1.1v-1.7c0-0.2,0-0.3-0.1-0.4c-0.1-0.2-0.3-0.2-0.6-0.2
		v-0.2h1l2.8,3.4V89c0-0.6,0-0.9,0-1.1c0-0.3-0.2-0.4-0.7-0.4v-0.2h1.7V87.5z"/>
	<path class="st2" d="M24.3,91.7v-0.2c0.5-0.1,0.6-0.1,0.6-0.7v-2.7c0-0.6-0.1-0.6-0.6-0.7v-0.2h1.8v0.2c-0.6,0.1-0.6,0.1-0.6,0.7
		v2.7c0,0.6,0.1,0.6,0.6,0.7v0.2H24.3z"/>
	<path class="st2" d="M31.4,87.5c-0.4,0-0.6,0.1-0.6,0.4c0,0.2,0,0.5,0,1.1v2.7h-0.3l-2.9-3.5v1.7c0,0.6,0,0.9,0,1.1
		c0,0.3,0.2,0.4,0.7,0.5v0.2h-1.6v-0.2c0.4,0,0.6-0.1,0.6-0.5c0-0.2,0-0.5,0-1.1v-1.7c0-0.2,0-0.3-0.1-0.4c-0.1-0.2-0.3-0.2-0.6-0.2
		v-0.2h1l2.8,3.4V89c0-0.6,0-0.9,0-1.1c0-0.3-0.2-0.4-0.7-0.4v-0.2h1.7V87.5z"/>
	<path class="st2" d="M36.3,89.8c-0.4,0.1-0.4,0.1-0.4,0.5v0.6c0,0.2,0,0.5,0,0.6c-0.4,0.1-1,0.2-1.5,0.2c-1.5,0-2.5-0.9-2.5-2.3
		c0-1.4,1.2-2.3,2.5-2.3c0.7,0,1.2,0.1,1.4,0.2c0,0.2,0,0.7,0.1,1.1l-0.2,0c-0.2-0.6-0.4-0.8-0.8-1c-0.2-0.1-0.4-0.1-0.6-0.1
		c-1,0-1.7,0.7-1.7,1.9c0,1.1,0.5,2.1,1.9,2.1c0.2,0,0.4,0,0.6-0.1c0.1-0.1,0.2-0.2,0.2-0.4v-0.6c0-0.5-0.1-0.5-0.7-0.6v-0.2h1.7
		V89.8z"/>
	<path class="st2" d="M42.5,90.6c-0.1,0.3-0.3,0.8-0.4,1c-0.2,0-0.7,0.2-1.2,0.2c-1.6,0-2.4-1.1-2.4-2.2c0-1.4,1-2.3,2.5-2.3
		c0.6,0,1,0.1,1.3,0.2c0,0.3,0.1,0.7,0.1,1l-0.2,0c-0.1-0.4-0.3-0.7-0.6-0.9c-0.2-0.1-0.5-0.1-0.7-0.1c-1.1,0-1.7,0.8-1.7,1.9
		c0,1.3,0.7,2.1,1.8,2.1c0.7,0,1-0.3,1.4-1L42.5,90.6z"/>
	<path class="st2" d="M46.6,90.6c0,0.2-0.2,0.9-0.3,1.1H43v-0.2c0.6,0,0.7-0.1,0.7-0.7v-2.7c0-0.6-0.1-0.6-0.6-0.7v-0.2h2.1
		c0.6,0,0.9,0,1,0c0,0.2,0,0.7,0.1,1l-0.2,0c-0.1-0.2-0.1-0.4-0.2-0.5c-0.1-0.2-0.3-0.3-0.7-0.3h-0.6c-0.2,0-0.2,0-0.2,0.2v1.5H45
		c0.5,0,0.5-0.1,0.6-0.6h0.2v1.4h-0.2c-0.1-0.5-0.1-0.6-0.6-0.6h-0.7v1.3c0,0.5,0.1,0.5,0.5,0.5h0.6c0.4,0,0.5-0.1,0.6-0.2
		c0.1-0.1,0.3-0.4,0.4-0.6L46.6,90.6z"/>
	<path class="st2" d="M51.7,87.5c-0.4,0-0.6,0.1-0.6,0.4c0,0.2,0,0.5,0,1.1v2.7h-0.3L48,88.2v1.7c0,0.6,0,0.9,0,1.1
		c0,0.3,0.2,0.4,0.7,0.5v0.2H47v-0.2c0.4,0,0.6-0.1,0.6-0.5c0-0.2,0-0.5,0-1.1v-1.7c0-0.2,0-0.3-0.1-0.4c-0.1-0.2-0.3-0.2-0.6-0.2
		v-0.2h1l2.8,3.4V89c0-0.6,0-0.9,0-1.1c0-0.3-0.2-0.4-0.7-0.4v-0.2h1.7V87.5z"/>
	<path class="st2" d="M55.8,88.4c-0.1-0.2-0.1-0.4-0.2-0.6c-0.1-0.2-0.2-0.2-0.5-0.2h-0.7v3.3c0,0.5,0.1,0.6,0.7,0.6v0.2h-2v-0.2
		c0.6,0,0.7-0.1,0.7-0.6v-3.3h-0.6c-0.4,0-0.5,0-0.6,0.2c-0.1,0.1-0.1,0.3-0.2,0.5h-0.2c0-0.4,0.1-0.8,0.1-1.2h0.2
		c0.1,0.2,0.2,0.2,0.4,0.2h2.7c0.2,0,0.2,0,0.3-0.2H56c0,0.3,0,0.8,0.1,1.2L55.8,88.4z"/>
	<path class="st2" d="M60.1,90.6c0,0.2-0.2,0.9-0.3,1.1h-3.3v-0.2c0.6,0,0.7-0.1,0.7-0.7v-2.7c0-0.6-0.1-0.6-0.6-0.7v-0.2h2.1
		c0.6,0,0.9,0,1,0c0,0.2,0,0.7,0.1,1l-0.2,0c-0.1-0.2-0.1-0.4-0.2-0.5c-0.1-0.2-0.3-0.3-0.7-0.3H58c-0.2,0-0.2,0-0.2,0.2v1.5h0.7
		c0.5,0,0.5-0.1,0.6-0.6h0.2v1.4h-0.2c-0.1-0.5-0.1-0.6-0.6-0.6h-0.7v1.3c0,0.5,0.1,0.5,0.5,0.5h0.6c0.4,0,0.5-0.1,0.6-0.2
		c0.1-0.1,0.3-0.4,0.4-0.6L60.1,90.6z"/>
	<path class="st2" d="M64.5,91.7c-0.1,0-0.2,0-0.2,0c-0.5,0-0.8-0.2-1-0.6c-0.2-0.3-0.5-0.8-0.7-1.1c-0.1-0.2-0.2-0.3-0.6-0.3h-0.2
		v1.1c0,0.6,0.1,0.6,0.6,0.7v0.2h-1.8v-0.2c0.6-0.1,0.6-0.1,0.6-0.7v-2.7c0-0.6-0.1-0.6-0.6-0.7v-0.2h1.7c0.5,0,0.8,0.1,1.1,0.2
		c0.3,0.2,0.5,0.5,0.5,0.9c0,0.6-0.4,0.9-0.9,1.2c0.1,0.2,0.4,0.7,0.6,1c0.2,0.4,0.4,0.5,0.5,0.7c0.2,0.2,0.3,0.3,0.5,0.3L64.5,91.7
		z M62.1,89.5c0.3,0,0.6-0.1,0.7-0.2c0.3-0.2,0.4-0.5,0.4-0.8c0-0.7-0.5-1-1-1c-0.2,0-0.3,0-0.4,0.1c-0.1,0-0.1,0.1-0.1,0.3v1.6
		H62.1z"/>
</g>
</svg>
