<?xml version="1.0" encoding="utf-8"?>
<!-- Generator: Adobe Illustrator 24.0.2, SVG Export Plug-In . SVG Version: 6.00 Build 0)  -->
<svg version="1.1" id="Layer_1" xmlns="http://www.w3.org/2000/svg" xmlns:xlink="http://www.w3.org/1999/xlink" x="0px" y="0px"
	 viewBox="0 0 1106 410" style="enable-background:new 0 0 1106 410;" xml:space="preserve">
<style type="text/css">
	.st0{fill:#FFFFFF;}
</style>
<g>
	<path class="st0" d="M182.05,101.35v210.54l90.27-50.5V151.85L182.05,101.35z M244.72,245.15l-35.09,19.63V219.9h35.09V245.15z
		 M244.72,193.39h-35.09v-44.88l35.09,19.63V193.39z"/>
	<path class="st0" d="M85.78,151.85V261.4l27.59,15.43v-31.68V219.9h35.09h27.59V101.35L85.78,151.85z M148.46,193.39h-35.09v-25.25
		l35.09-19.63V193.39z"/>
	<polygon class="st0" points="176.17,321.76 76.83,264.4 76.83,149.69 176.17,92.33 176.17,68.9 166.03,74.76 66.68,132.11 
		56.53,137.97 56.53,149.69 56.53,264.4 56.53,276.12 66.68,281.98 166.03,339.33 176.17,345.19 	"/>
	<polygon class="st0" points="182.05,321.76 281.39,264.4 281.39,149.69 182.05,92.33 182.05,68.9 192.19,74.76 291.54,132.11 
		301.68,137.97 301.68,149.69 301.68,264.4 301.68,276.12 291.54,281.98 192.19,339.33 182.05,345.19 	"/>
	<g>
		<path class="st0" d="M353.38,174c7.76,0,13.99,1.42,18.47,4.7c4.26,3.17,7.21,8.3,7.21,15.52c0,15.95-13.66,22.4-24.04,22.4
			c-1.2,0-2.29-0.11-2.95-0.22l-7.54-1.97v17.05c0,9.18,0.76,9.4,10.82,10.49v3.06h-30.16v-3.06c9.4-0.98,9.83-1.64,9.83-10.71
			v-43.38c0-9.72-1.2-9.94-9.83-10.82V174H353.38z M344.53,210.6c1.31,0.66,4.26,1.42,7.98,1.42c7.32,0,16.39-3.71,16.39-17.48
			c0-12.02-7.87-16.83-17.05-16.83c-3.17,0-5.46,0.55-6.12,1.31c-0.88,0.77-1.2,2.08-1.2,5.03V210.6z"/>
		<path class="st0" d="M458.72,177.06c-9.07,0.87-9.94,1.42-9.94,10.6v43.82c0,9.18,0.98,9.51,9.94,10.49v3.06h-29.28v-3.06
			c9.07-1.09,9.94-1.31,9.94-10.49v-21.85h-37.37v21.85c0,9.07,0.87,9.4,9.83,10.49v3.06h-29.17v-3.06
			c8.85-0.98,9.83-1.31,9.83-10.49v-43.82c0-9.18-0.98-9.73-9.83-10.6V174h29.17v3.06c-8.74,0.77-9.83,1.53-9.83,10.6v17.37h37.37
			v-17.37c0-9.07-1.2-9.83-9.94-10.6V174h29.28V177.06z"/>
		<path class="st0" d="M525.48,177.06c-7.65,0.87-8.96,2.08-13.33,9.07c-4.92,7.98-8.96,15.52-14.31,25.24
			c-1.31,2.51-1.64,3.82-1.64,6.45v13.44c0,9.07,0.98,9.72,11.15,10.71v3.06h-31.36v-3.06c9.94-1.31,10.71-1.53,10.71-10.71v-14.1
			c0-2.19-0.44-3.17-2.19-6.34c-3.82-7.1-7.54-13.99-13.44-24.26c-4.26-7.43-5.35-8.74-12.79-9.51V174h26.88v3.06
			c-7.87,1.09-7.43,2.51-5.46,6.23c4.59,8.41,9.72,18.25,14.31,26.44c3.93-7.32,10.16-19.23,13.22-25.24
			c2.51-5.46,2.19-6.56-6.45-7.43V174h24.69V177.06z"/>
		<path class="st0" d="M561.97,190.61c-1.86-7.21-4.92-14.31-15.19-14.31c-8.52,0-11.47,6.23-11.47,11.91
			c0,7.54,4.81,11.36,13.88,16.06c13.11,6.77,18.79,11.8,18.79,22.18c0,11.47-9.94,20.21-24.04,20.21c-6.56,0-12.24-1.86-16.72-3.61
			c-0.87-3.06-2.19-10.49-2.95-16.39l3.39-0.87c2.19,7.32,6.99,16.83,18.36,16.83c7.87,0,12.67-5.46,12.67-12.57
			c0-8.41-4.48-11.8-14.09-17.05c-11.47-6.23-17.92-11.47-17.92-21.64c0-9.72,8.09-18.9,22.51-18.9c6.12,0,12.13,1.64,14.42,2.08
			c0.44,3.93,0.88,8.3,1.75,15.41L561.97,190.61z"/>
		<path class="st0" d="M571.91,245.02v-3.06c8.96-0.98,9.83-1.42,9.83-10.71v-43.38c0-9.4-0.87-9.83-9.83-10.82V174h29.28v3.06
			c-9.07,0.98-9.94,1.42-9.94,10.82v43.38c0,9.4,0.87,9.72,9.94,10.71v3.06H571.91z"/>
		<path class="st0" d="M671.56,227.54c-1.53,5.24-4.37,13.11-6.01,16.5c-3.17,0.66-11.69,2.62-20,2.62
			c-26.11,0-39.45-17.37-39.45-36.5c0-22.29,16.94-37.7,41.41-37.7c9.4,0,17.04,1.97,20.65,2.51c0.44,4.92,1.2,11.47,2.08,16.94
			l-3.39,0.77c-2.19-7.32-4.81-11.8-10.38-14.1c-2.84-1.31-7.32-2.08-11.47-2.08c-18.03,0-27.54,13.33-27.54,31.36
			c0,21.09,10.93,34.64,28.63,34.64c11.15,0,16.61-5.14,22.18-16.06L671.56,227.54z"/>
		<path class="st0" d="M717.67,245.02v-3.06c7.1-0.87,7.98-1.97,6.45-6.12c-1.42-4.26-3.61-9.72-5.9-16.61h-23.6
			c-1.75,4.92-3.39,9.18-4.92,13.66c-2.4,7.1-0.87,7.98,8.09,9.07v3.06h-25.24v-3.06c6.88-0.87,8.63-1.64,12.46-11.47l22.62-57.37
			l3.5-0.66c6.88,18.69,14.42,39.34,21.31,58.24c3.5,9.51,4.48,10.38,12.24,11.25v3.06H717.67z M706.74,186.78
			c-3.5,9.4-7.21,19.34-10.49,27.97h20.43L706.74,186.78z"/>
		<path class="st0" d="M798.42,226.88c-0.66,3.39-3.93,14.75-5.03,18.14h-50.81v-3.06c9.94-0.98,10.82-1.53,10.82-10.82v-43.38
			c0-9.29-1.09-9.83-9.83-10.71V174h29.28v3.06c-8.74,0.87-9.94,1.31-9.94,10.71v44.47c0,6.67,0.87,8.19,7.1,8.3
			c0.11,0,7.98,0.11,8.63,0.11c5.57,0,7.21-0.66,9.72-3.39c2.73-2.84,5.03-7.21,6.67-11.25L798.42,226.88z"/>
		<path class="st0" d="M857.53,206.56c10.49,1.75,19.01,6.77,19.01,17.37c0,7.43-4.15,13.33-10.6,16.83
			c-5.68,3.17-11.25,4.26-18.9,4.26h-26.88v-3.06c9.29-0.87,9.83-1.86,9.83-10.49v-43.82c0-9.07-0.98-9.83-9.83-10.6V174h28.63
			c8.2,0,13.33,1.42,16.83,3.82c3.82,2.62,6.45,6.67,6.45,12.24C872.06,200.33,863.65,205.03,857.53,206.56z M844.96,205.25
			c12.02,0,16.94-4.81,16.94-13.77c0-7.65-4.7-13.55-15.19-13.55c-3.06,0-5.03,0.33-6.12,1.09c-0.88,0.66-1.2,1.86-1.2,5.35v20.87
			H844.96z M839.39,231.25c0,7.87,1.86,9.83,9.62,9.83c8.52,0,16.83-4.59,16.83-16.06c0-11.15-7.87-15.95-21.2-15.95h-5.25V231.25z"
			/>
		<path class="st0" d="M920.79,245.02v-3.06c7.1-0.87,7.98-1.97,6.45-6.12c-1.42-4.26-3.61-9.72-5.9-16.61h-23.6
			c-1.75,4.92-3.39,9.18-4.92,13.66c-2.4,7.1-0.87,7.98,8.09,9.07v3.06h-25.24v-3.06c6.88-0.87,8.63-1.64,12.46-11.47l22.62-57.37
			l3.5-0.66c6.88,18.69,14.42,39.34,21.31,58.24c3.5,9.51,4.48,10.38,12.24,11.25v3.06H920.79z M909.86,186.78
			c-3.5,9.4-7.21,19.34-10.49,27.97h20.43L909.86,186.78z"/>
		<path class="st0" d="M986.35,190.61c-1.86-7.21-4.92-14.31-15.19-14.31c-8.52,0-11.47,6.23-11.47,11.91
			c0,7.54,4.81,11.36,13.88,16.06c13.11,6.77,18.79,11.8,18.79,22.18c0,11.47-9.94,20.21-24.04,20.21c-6.56,0-12.24-1.86-16.72-3.61
			c-0.87-3.06-2.19-10.49-2.95-16.39l3.39-0.87c2.19,7.32,6.99,16.83,18.36,16.83c7.87,0,12.67-5.46,12.67-12.57
			c0-8.41-4.48-11.8-14.09-17.05c-11.47-6.23-17.92-11.47-17.92-21.64c0-9.72,8.09-18.9,22.51-18.9c6.12,0,12.13,1.64,14.42,2.08
			c0.44,3.93,0.88,8.3,1.75,15.41L986.35,190.61z"/>
		<path class="st0" d="M1053,227.65c-0.66,2.84-3.61,14.1-4.7,17.37h-53.1v-3.06c10.16-0.76,10.93-1.75,10.93-10.71v-43.16
			c0-9.73-1.2-10.27-9.4-11.04V174h33.44c10.27,0,14.53-0.11,15.84-0.22c0.11,2.73,0.55,10.93,0.98,16.72l-3.28,0.55
			c-0.98-3.71-2.08-6.01-3.28-8.3c-1.75-3.61-4.26-4.37-10.82-4.37h-10.38c-3.39,0-3.61,0.33-3.61,3.5v24.15h12.13
			c8.19,0,8.74-1.64,10.05-9.07h3.39v22.51h-3.39c-1.42-7.87-2.29-8.96-10.16-8.96h-12.02v21.74c0,7.65,2.4,8.3,7.87,8.41h10.16
			c6.67,0,7.76-0.98,10.16-3.82c2.08-2.29,4.37-6.77,5.9-10.05L1053,227.65z"/>
	</g>
</g>
</svg>
